<?xml version="1.0" encoding="UTF-8" standalone="no"?> <svg width="512" height="512" viewBox="0 0 512 512" fill="none" xmlns="http://www.w3.org/2000/svg">
<path d="M481.027 297.776C477.355 295.157 473.221 293.256 468.843 292.173C486.536 267.677 496.04 238.218 496 208C496 128.598 431.402 64 352 64H312C232.598 64 168 128.598 168 208C167.96 227.591 171.95 246.982 179.721 264.966L160.402 284.284C156.697 288.01 152.289 290.964 147.433 292.975C142.578 294.986 137.373 296.014 132.118 296H16V312H132.118C139.475 312.02 146.763 310.581 153.56 307.765C160.357 304.95 166.528 300.814 171.716 295.598L191.598 275.716C195.303 271.99 199.711 269.036 204.567 267.025C209.422 265.014 214.627 263.986 219.882 264H296C302.365 264 308.47 266.529 312.971 271.029C317.471 275.53 320 281.635 320 288C320 294.365 317.471 300.47 312.971 304.971C308.47 309.471 302.365 312 296 312H192V328H245.875L287.389 351.722C292.351 354.559 297.863 356.299 303.554 356.824C309.246 357.35 314.984 356.65 320.381 354.77L453.962 308.282C456.916 307.254 460.072 306.948 463.167 307.389C466.263 307.83 469.208 309.006 471.757 310.817C474.306 312.629 476.384 315.024 477.818 317.803C479.252 320.582 480 323.663 480 326.79V327.413C480.016 330.966 479.07 334.457 477.264 337.517C475.457 340.577 472.857 343.091 469.739 344.794L329.498 420.758C307.439 432.769 281.536 435.605 257.401 428.651L185.121 408H16V424H182.88L253.005 444.036C281.163 452.145 311.382 448.836 337.118 434.826L477.359 358.862C483.013 355.788 487.731 351.242 491.012 345.706C494.294 340.169 496.017 333.849 496 327.413V326.79C496.034 321.104 494.69 315.495 492.082 310.442C489.474 305.389 485.681 301.043 481.027 297.776V297.776ZM470.688 256H447.771C451.422 245.647 453.879 234.911 455.093 224H478.999C477.63 234.982 474.836 245.739 470.688 256V256ZM480 208H456C456.004 197.233 454.801 186.499 452.411 176H475.95C478.646 186.453 480.007 197.205 480 208V208ZM470.652 160H447.764C443.757 148.704 438.351 137.954 431.674 128H451.841C459.632 137.697 465.969 148.477 470.652 160V160ZM436.564 112H419.232C409.65 101.303 398.533 92.0892 386.244 84.6587C404.869 89.8512 422.073 99.1994 436.564 112H436.564ZM296 248H291.267L241.303 198.125C238.354 195.184 236.015 191.69 234.418 187.844C232.822 183.997 232 179.874 232 175.709C232 171.544 232.822 167.421 234.418 163.574C236.015 159.728 238.354 156.234 241.303 153.293C247.274 147.35 255.355 144.013 263.78 144.013C272.204 144.013 280.286 147.35 286.256 153.293L312 178.99L337.744 153.293C343.714 147.35 351.796 144.014 360.22 144.014C368.645 144.014 376.726 147.35 382.697 153.293C385.646 156.234 387.985 159.728 389.582 163.574C391.178 167.421 392 171.544 392 175.709C392 179.874 391.178 183.997 389.582 187.844C387.985 191.69 385.646 195.184 382.697 198.125L322.576 258.139C315.267 251.604 305.805 247.994 296 248V248ZM377.613 317.911L315.122 339.658C311.884 340.786 308.441 341.207 305.026 340.891C301.611 340.576 298.304 339.532 295.327 337.829L278.126 328H296C302.726 328.004 309.345 326.31 315.243 323.076C321.141 319.842 326.128 315.172 329.741 309.498C333.355 303.825 335.478 297.331 335.915 290.619C336.353 283.907 335.089 277.193 332.242 271.099L394 209.449C398.438 205.022 401.959 199.763 404.361 193.974C406.763 188.184 408 181.977 408 175.709C408 169.441 406.763 163.234 404.361 157.444C401.959 151.655 398.438 146.396 394 141.969C385.027 133.038 372.881 128.024 360.22 128.024C347.559 128.024 335.414 133.038 326.44 141.969L312 156.383L297.56 141.969C288.586 133.038 276.441 128.024 263.78 128.024C251.119 128.024 238.973 133.038 230 141.969C225.562 146.396 222.041 151.655 219.639 157.444C217.237 163.234 216 169.441 216 175.709C216 181.977 217.237 188.184 219.639 193.974C222.041 199.763 225.562 205.022 230 209.449L268.619 248H219.882C210.439 247.982 201.146 250.366 192.878 254.927C185.976 237.404 183.025 218.573 184.237 199.779C185.449 180.984 190.792 162.688 199.887 146.196C208.982 129.704 221.604 115.422 236.852 104.368C252.101 93.3141 269.601 85.7611 288.104 82.2475C306.607 78.7339 325.657 79.3463 343.896 84.0409C362.135 88.7356 379.114 97.3969 393.621 109.407C408.128 121.417 419.807 136.481 427.823 153.523C435.84 170.565 439.998 189.166 440 208C439.945 230.142 434.173 251.894 423.243 271.15C412.313 290.406 396.595 306.513 377.613 317.911ZM447.015 293.758L420.105 303.124C426.214 296.19 431.643 288.687 436.317 280.716C437.989 277.863 439.557 274.958 441.02 272H462.872C458.365 279.789 453.05 287.082 447.015 293.758V293.758Z" fill="url(#paint0_linear_479_8408)"/>
<defs>
<linearGradient id="paint0_linear_479_8408" x1="256" y1="5.22013" x2="256" y2="515.437" gradientUnits="userSpaceOnUse">
<stop stop-color="#2AB793"/>
<stop offset="1" stop-color="#2C98B5"/>
</linearGradient>
</defs>
</svg>
